<svg xmlns="http://www.w3.org/2000/svg" width="360" height="800" viewBox="0 0 360 800">
  <title>Settings · light</title>
  <desc>KaavalanNote — Field Notebook UI v2.7. Generated from the shipped Compose theme by design/penpot-v2.7/tools/generate_boards.py. 1 unit = 1dp.</desc>
  <rect x="0.0" y="0.0" width="360.0" height="800.0" rx="0.0" fill="#F6F8FA"/>
  <text x="20.0" y="15.0" font-family="Roboto, Noto Sans, Helvetica Neue, Arial, sans-serif" font-size="12.0" font-weight="500" fill="#4B5E6A" text-anchor="start">12:00</text>
  <rect x="0.0" y="0.0" width="360.0" height="800.0" rx="0.0" fill="#F6F8FA"/>
  <rect x="0.0" y="0.0" width="360.0" height="800.0" rx="28.0" fill="#F0F4F6"/>
  <rect x="164.0" y="10.0" width="32.0" height="4.0" rx="2.0" fill="#CAD7DE"/>
  <rect x="20.0" y="28.0" width="40.0" height="40.0" rx="12.0" fill="#D8EBF6"/>
  <rect x="35.5" y="43.5" width="9.0" height="9.0" rx="2" fill="none" stroke="#113A53" stroke-width="1.6"/>
  <text x="72.0" y="58.24" font-family="Roboto, Noto Sans, Helvetica Neue, Arial, sans-serif" font-size="24.0" font-weight="500" fill="#15242E" text-anchor="start">Settings</text>
  <rect x="329.5" y="43.5" width="9.0" height="9.0" rx="2" fill="none" stroke="#4B5E6A" stroke-width="1.6"/>
  <rect x="20.0" y="100.0" width="40.0" height="40.0" rx="12.0" fill="#D8EBF6"/>
  <rect x="35.5" y="115.5" width="9.0" height="9.0" rx="2" fill="none" stroke="#113A53" stroke-width="1.6"/>
  <text x="72.0" y="114.6" font-family="Roboto, Noto Sans, Helvetica Neue, Arial, sans-serif" font-size="16.0" font-weight="600" fill="#15242E" text-anchor="start">Labels</text>
  <text x="72.0" y="139.0" font-family="Roboto, Noto Sans, Helvetica Neue, Arial, sans-serif" font-size="14.0" font-weight="400" fill="#4B5E6A" text-anchor="start">Organise notes with optional labe…</text>
  <path d="M 333.0 114.0 L 339.0 120.0 L 333.0 126.0" fill="none" stroke="#4B5E6A" stroke-width="1.6" stroke-linecap="round" stroke-linejoin="round"/>
  <line x1="20.0" y1="156.0" x2="340.0" y2="156.0" stroke="#CAD7DE" stroke-width="1"/>
  <rect x="20.0" y="180.0" width="40.0" height="40.0" rx="12.0" fill="#D8EBF6"/>
  <rect x="35.5" y="195.5" width="9.0" height="9.0" rx="2" fill="none" stroke="#113A53" stroke-width="1.6"/>
  <text x="72.0" y="194.6" font-family="Roboto, Noto Sans, Helvetica Neue, Arial, sans-serif" font-size="16.0" font-weight="600" fill="#15242E" text-anchor="start">Privacy &amp; security</text>
  <text x="72.0" y="219.0" font-family="Roboto, Noto Sans, Helvetica Neue, Arial, sans-serif" font-size="14.0" font-weight="400" fill="#4B5E6A" text-anchor="start">Private contacts, PIN and recovery</text>
  <path d="M 333.0 194.0 L 339.0 200.0 L 333.0 206.0" fill="none" stroke="#4B5E6A" stroke-width="1.6" stroke-linecap="round" stroke-linejoin="round"/>
  <line x1="20.0" y1="236.0" x2="340.0" y2="236.0" stroke="#CAD7DE" stroke-width="1"/>
  <rect x="20.0" y="260.0" width="40.0" height="40.0" rx="12.0" fill="#D8EBF6"/>
  <rect x="35.5" y="275.5" width="9.0" height="9.0" rx="2" fill="none" stroke="#113A53" stroke-width="1.6"/>
  <text x="72.0" y="274.6" font-family="Roboto, Noto Sans, Helvetica Neue, Arial, sans-serif" font-size="16.0" font-weight="600" fill="#15242E" text-anchor="start">Google Drive backup</text>
  <text x="72.0" y="299.0" font-family="Roboto, Noto Sans, Helvetica Neue, Arial, sans-serif" font-size="14.0" font-weight="400" fill="#4B5E6A" text-anchor="start">Optional encrypted off-device bac…</text>
  <path d="M 333.0 274.0 L 339.0 280.0 L 333.0 286.0" fill="none" stroke="#4B5E6A" stroke-width="1.6" stroke-linecap="round" stroke-linejoin="round"/>
  <line x1="20.0" y1="316.0" x2="340.0" y2="316.0" stroke="#CAD7DE" stroke-width="1"/>
  <rect x="20.0" y="340.0" width="40.0" height="40.0" rx="12.0" fill="#D8EBF6"/>
  <rect x="35.5" y="355.5" width="9.0" height="9.0" rx="2" fill="none" stroke="#113A53" stroke-width="1.6"/>
  <text x="72.0" y="354.6" font-family="Roboto, Noto Sans, Helvetica Neue, Arial, sans-serif" font-size="16.0" font-weight="600" fill="#15242E" text-anchor="start">Display theme</text>
  <text x="72.0" y="379.0" font-family="Roboto, Noto Sans, Helvetica Neue, Arial, sans-serif" font-size="14.0" font-weight="400" fill="#4B5E6A" text-anchor="start">Follow your phone, light or dark</text>
  <path d="M 333.0 354.0 L 339.0 360.0 L 333.0 366.0" fill="none" stroke="#4B5E6A" stroke-width="1.6" stroke-linecap="round" stroke-linejoin="round"/>
  <line x1="20.0" y1="396.0" x2="340.0" y2="396.0" stroke="#CAD7DE" stroke-width="1"/>
  <rect x="20.0" y="420.0" width="40.0" height="40.0" rx="12.0" fill="#D8EBF6"/>
  <rect x="35.5" y="435.5" width="9.0" height="9.0" rx="2" fill="none" stroke="#113A53" stroke-width="1.6"/>
  <text x="72.0" y="434.6" font-family="Roboto, Noto Sans, Helvetica Neue, Arial, sans-serif" font-size="16.0" font-weight="600" fill="#15242E" text-anchor="start">Export &amp; restore</text>
  <text x="72.0" y="459.0" font-family="Roboto, Noto Sans, Helvetica Neue, Arial, sans-serif" font-size="14.0" font-weight="400" fill="#4B5E6A" text-anchor="start">Save a copy or move to another ph…</text>
  <path d="M 333.0 434.0 L 339.0 440.0 L 333.0 446.0" fill="none" stroke="#4B5E6A" stroke-width="1.6" stroke-linecap="round" stroke-linejoin="round"/>
  <line x1="20.0" y1="476.0" x2="340.0" y2="476.0" stroke="#CAD7DE" stroke-width="1"/>
  <rect x="20.0" y="500.0" width="40.0" height="40.0" rx="12.0" fill="#D8EBF6"/>
  <rect x="35.5" y="515.5" width="9.0" height="9.0" rx="2" fill="none" stroke="#113A53" stroke-width="1.6"/>
  <text x="72.0" y="514.6" font-family="Roboto, Noto Sans, Helvetica Neue, Arial, sans-serif" font-size="16.0" font-weight="600" fill="#15242E" text-anchor="start">About &amp; support</text>
  <text x="72.0" y="539.0" font-family="Roboto, Noto Sans, Helvetica Neue, Arial, sans-serif" font-size="14.0" font-weight="400" fill="#4B5E6A" text-anchor="start">Updates, app information and help</text>
  <path d="M 333.0 514.0 L 339.0 520.0 L 333.0 526.0" fill="none" stroke="#4B5E6A" stroke-width="1.6" stroke-linecap="round" stroke-linejoin="round"/>
  <line x1="20.0" y1="556.0" x2="340.0" y2="556.0" stroke="#CAD7DE" stroke-width="1"/>
  <rect x="20.0" y="580.0" width="40.0" height="40.0" rx="12.0" fill="#D8EBF6"/>
  <rect x="35.5" y="595.5" width="9.0" height="9.0" rx="2" fill="none" stroke="#113A53" stroke-width="1.6"/>
  <text x="72.0" y="594.6" font-family="Roboto, Noto Sans, Helvetica Neue, Arial, sans-serif" font-size="16.0" font-weight="600" fill="#15242E" text-anchor="start">Erase local data</text>
  <text x="72.0" y="619.0" font-family="Roboto, Noto Sans, Helvetica Neue, Arial, sans-serif" font-size="14.0" font-weight="400" fill="#4B5E6A" text-anchor="start">Remove all records from this phone</text>
  <path d="M 333.0 594.0 L 339.0 600.0 L 333.0 606.0" fill="none" stroke="#4B5E6A" stroke-width="1.6" stroke-linecap="round" stroke-linejoin="round"/>
  <line x1="20.0" y1="636.0" x2="340.0" y2="636.0" stroke="#CAD7DE" stroke-width="1"/>
</svg>
